<svg version="1.1" id="Layer_1" xmlns="http://www.w3.org/2000/svg" xmlns:xlink="http://www.w3.org/1999/xlink" x="0px" y="0px"
	 width="100%" viewBox="0 0 2339 1653" enable-background="new 0 0 2339 1653" xml:space="preserve">
<path fill="none" opacity="1.000000" stroke="#000000" stroke-linecap="round" stroke-linejoin="round" stroke-width="4.000000"
	d="
M1101.500000,1614.500000 
	C1087.232300,1610.092407 1073.594238,1603.997925 1060.060791,1597.865845 
	C1012.787231,1576.445923 967.115356,1552.083984 923.934692,1523.097290 
	C893.618958,1502.746948 864.375916,1481.092896 836.434082,1457.578369 
	C807.495789,1433.225098 780.143921,1407.252808 754.555664,1379.448730 
	C733.952148,1357.060913 714.338989,1333.805176 695.995422,1309.503418 
	C667.729797,1272.056885 642.356323,1232.753540 619.990417,1191.505249 
	C604.548950,1163.027344 590.495361,1133.866455 578.091187,1103.962158 
	C564.081665,1070.187622 552.177979,1035.605103 542.170471,1000.451477 
	C536.176880,979.397705 531.080566,958.057007 526.932678,936.512939 
	C524.051086,921.545959 521.109009,906.612183 518.857422,891.521240 
	C517.019226,879.201233 515.275757,866.891907 513.935242,854.507019 
	C512.763855,843.684509 511.533142,832.892761 510.829285,822.011047 
	C510.160889,811.677673 509.603027,801.332581 508.864471,791.009705 
	C507.027832,765.338440 508.160736,739.661682 508.244385,714.000793 
	C508.273071,705.208984 508.251465,696.279297 509.136749,687.513794 
	C510.606812,672.959229 512.281006,658.437378 514.803467,643.965759 
	C521.225220,607.123474 533.244995,572.314148 549.980896,538.990417 
	C563.573425,511.925507 580.440918,487.112427 599.940979,463.950317 
	C624.121826,435.228363 652.059509,410.860168 683.526978,390.541809 
	C718.910889,367.694580 756.864441,350.708282 797.966003,340.858246 
	C806.299744,338.861053 814.708740,337.181305 823.020691,335.082031 
	C825.096191,334.557800 827.160278,334.985901 829.065491,336.936005 
	C850.808228,359.191071 873.132935,380.864868 894.587708,403.416565 
	C911.316162,421.000153 929.109924,437.567383 945.934021,455.063446 
	C970.118835,480.214203 995.196289,504.480072 1019.404358,529.592224 
	C1040.186035,551.149902 1061.538208,572.130188 1082.400757,593.596497 
	C1085.449463,596.733459 1088.444092,597.712036 1092.502197,597.556824 
	C1098.327026,597.334106 1104.166626,597.500000 1110.000000,597.500000 
	C1110.501465,599.004150 1110.016235,773.683594 1109.420532,778.087830 
	C1105.129272,777.675781 1100.828491,778.645447 1096.494873,778.919861 
	C1084.800781,779.660217 1073.133179,780.548950 1061.490479,781.918762 
	C1056.861816,782.463257 1052.135620,782.541992 1047.488770,782.767273 
	C1040.985229,783.082703 1034.526489,783.945251 1028.005981,784.171631 
	C1018.149780,784.513794 1008.344238,786.133423 998.495178,786.941589 
	C993.835632,787.323975 989.167725,787.387268 984.486145,787.863770 
	C972.841980,789.048828 961.121460,789.371582 949.487854,790.908142 
	C944.874878,791.517456 940.135620,791.542053 935.488708,791.767334 
	C928.985229,792.082703 922.455872,792.645935 916.022705,793.244019 
	C906.521973,794.127197 896.966736,794.556519 887.471619,795.779785 
	C882.076721,796.474854 876.500305,796.830994 870.998779,796.937683 
	C864.811157,797.057556 858.668701,797.888367 852.519409,798.294373 
	C848.485657,798.560608 844.513550,798.658020 840.093201,799.120117 
	C839.798096,793.687561 839.439697,788.784058 839.197693,783.990051 
	C838.489502,769.957520 836.582397,756.039917 835.793518,742.011597 
	C835.146851,730.512024 833.891479,719.009216 832.885498,707.510010 
	C831.850403,695.678162 830.694763,683.864136 829.886292,672.007751 
	C829.397583,664.839905 827.968506,657.733337 827.987488,650.499939 
	C827.992249,648.681519 827.934021,647.294861 830.490234,646.931335 
	C843.511353,645.079895 856.520264,643.122192 869.494995,640.969971 
	C886.848450,638.091309 904.159546,634.957825 921.504517,632.026550 
	C926.475159,631.186462 931.525635,630.812439 936.489380,629.939697 
	C939.048889,629.489746 941.321045,628.540466 943.085205,626.060608 
	C948.355103,618.652710 950.727966,610.136658 950.728638,601.500000 
	C950.729248,593.026062 948.245544,584.569519 942.952209,577.536011 
	C937.740051,570.610474 931.264282,565.153625 923.008972,561.976624 
	C911.663330,557.610168 900.645325,559.657959 889.484985,562.949097 
	C861.727783,571.134583 836.118469,583.513916 812.991394,600.988586 
	C779.449036,626.333130 754.363525,658.201111 737.930481,696.970520 
	C731.144653,712.980042 726.440735,729.547241 723.053589,746.510681 
	C719.660706,763.503479 719.880432,780.757019 719.949280,798.000183 
	C720.016602,814.852722 722.935913,831.353088 727.200806,847.446777 
	C733.978088,873.020935 741.290588,898.471130 749.935608,923.522217 
	C761.566528,957.225403 774.608459,990.303284 789.856689,1022.567688 
	C800.253540,1044.566895 811.077515,1066.308716 823.028137,1087.484131 
	C842.602539,1122.168457 864.413574,1155.420532 888.025696,1187.481079 
	C902.513977,1207.153198 917.797363,1226.201538 933.935974,1244.691528 
	C935.242188,1240.785034 935.700195,1103.372925 934.395386,1093.726562 
	C927.180481,1095.275146 919.807129,1094.645630 912.522339,1095.263306 
	C910.827454,1095.406982 908.815796,1095.972656 907.001221,1095.937500 
	C898.805786,1095.778320 890.684082,1096.943604 882.507202,1097.215820 
	C873.183960,1097.526123 863.885864,1099.075806 854.500122,1098.987183 
	C853.817017,1098.980713 853.000671,1099.330566 852.250000,1098.069214 
	C852.250000,1060.500000 852.250000,1022.500000 852.250000,984.147217 
	C864.135193,982.748901 875.832275,981.487427 887.495850,979.968140 
	C899.181396,978.445984 910.817261,976.541809 922.505066,975.039612 
	C931.813171,973.843201 941.229065,973.385742 950.482056,971.888916 
	C959.306702,970.461243 968.199890,969.515015 977.035645,968.248596 
	C983.782410,967.281616 990.649170,966.512878 997.488953,965.880493 
	C1006.700195,965.028809 1015.797729,962.881104 1025.012207,962.155640 
	C1031.384399,961.654053 1037.684814,960.717590 1043.984985,959.886169 
	C1053.163452,958.674988 1062.363403,957.521423 1071.531738,956.224792 
	C1077.961548,955.315491 1084.487549,954.555725 1090.997437,953.971375 
	C1095.362793,953.579590 1099.703613,952.914673 1105.000000,952.254211 
	C1105.000000,1172.832275 1105.000000,1393.666138 1105.000000,1614.500000 
"/>
<path fill="none" opacity="1.000000" stroke="#000000" stroke-linecap="round" stroke-linejoin="round" stroke-width="4.000000"
	d="
M1163.000000,1614.500000 
	C1163.000000,1393.999878 1163.000000,1173.499756 1163.000000,952.624756 
	C1175.086182,953.590027 1186.529907,955.368103 1198.023193,956.815491 
	C1204.484253,957.629150 1210.999878,958.362610 1217.490723,959.083191 
	C1226.527466,960.086304 1235.463501,962.120117 1244.512207,962.847900 
	C1251.043945,963.373169 1257.513062,964.263000 1263.990967,965.072021 
	C1270.838623,965.927246 1277.695923,966.912354 1284.528809,967.770935 
	C1290.989258,968.582581 1297.524414,969.204163 1303.987671,970.090210 
	C1310.497314,970.982605 1317.036743,971.848572 1323.534790,972.749084 
	C1329.970337,973.640991 1336.513062,974.263000 1342.990967,975.072021 
	C1349.838623,975.927307 1356.695923,976.912354 1363.528809,977.770935 
	C1369.989258,978.582581 1376.524414,979.204102 1382.987671,980.090149 
	C1389.497314,980.982544 1396.041992,981.743286 1402.541870,982.722351 
	C1406.806885,983.364868 1411.106445,984.521545 1415.750000,983.914551 
	C1415.750000,1022.500000 1415.750000,1060.500000 1415.750000,1098.990845 
	C1405.777466,1099.079102 1396.117676,1098.491333 1386.495850,1097.027222 
	C1385.192627,1096.828979 1383.829956,1096.937134 1382.500610,1097.010132 
	C1374.299927,1097.460571 1366.094360,1096.443359 1358.035645,1095.641602 
	C1351.369507,1094.978149 1344.528076,1096.309204 1337.968506,1094.093140 
	C1336.692993,1093.662231 1334.908447,1093.509521 1333.250000,1094.548218 
	C1333.250000,1144.500000 1333.250000,1194.500000 1333.250000,1245.530762 
	C1341.423828,1236.200073 1348.812622,1227.450195 1356.044556,1218.536133 
	C1379.490967,1189.636719 1401.095825,1159.400635 1420.899902,1127.937012 
	C1441.063843,1095.901367 1459.340820,1062.774780 1475.542114,1028.519897 
	C1485.571899,1007.313416 1494.872559,985.802002 1503.469482,963.987976 
	C1512.403076,941.319092 1520.504272,918.338257 1527.431641,894.979736 
	C1532.937744,876.413696 1538.338135,857.785889 1542.787231,838.949768 
	C1545.013062,829.526184 1546.213501,819.772888 1547.206421,810.020996 
	C1548.584839,796.483521 1548.808350,782.884216 1547.737793,769.520996 
	C1544.737793,732.069641 1533.425293,697.077820 1513.526123,664.983826 
	C1494.989624,635.087769 1470.829956,610.782043 1441.501953,591.497009 
	C1419.014893,576.710327 1394.433105,566.508728 1368.450317,560.204956 
	C1347.631104,555.153931 1325.749146,567.927429 1319.068970,590.020874 
	C1315.198730,602.821167 1317.588013,614.866821 1324.948364,626.034058 
	C1326.722412,628.725586 1329.123291,629.577393 1331.998535,630.009583 
	C1343.705811,631.769348 1355.374634,633.729248 1367.017700,635.905579 
	C1378.269409,638.008606 1389.690552,639.187683 1400.993164,641.041443 
	C1412.024536,642.850647 1422.994263,645.032532 1434.005249,646.970154 
	C1436.000366,647.321167 1438.202515,646.451477 1439.862183,647.894836 
	C1440.892700,655.058350 1439.264526,662.005798 1438.844238,668.990601 
	C1438.050049,682.189758 1435.952881,695.311096 1435.181763,708.510620 
	C1434.860229,714.013733 1434.302368,719.514160 1433.845581,724.987122 
	C1433.038208,734.662720 1432.668457,744.382507 1431.156616,754.024536 
	C1430.389771,758.914978 1430.348267,764.018250 1430.142944,769.005859 
	C1429.735840,778.896423 1427.520630,788.597778 1428.067627,798.982910 
	C1419.431519,799.095642 1411.477173,798.167297 1403.486328,797.102539 
	C1398.874756,796.488098 1394.135620,796.458008 1389.488770,796.232666 
	C1382.985229,795.917297 1376.526489,795.054749 1370.005981,794.828308 
	C1360.149780,794.486145 1350.344360,792.866577 1340.495239,792.058472 
	C1335.835693,791.676086 1331.161621,791.545227 1326.487427,791.148804 
	C1314.654419,790.145569 1302.797729,789.485107 1290.990356,788.080688 
	C1286.527344,787.549866 1281.963867,787.422974 1277.490112,787.228394 
	C1270.980591,786.945190 1264.526489,786.054688 1258.005981,785.828369 
	C1248.149780,785.486145 1238.344360,783.866577 1228.495239,783.058472 
	C1223.835693,782.676086 1219.164673,782.577026 1214.486694,782.143188 
	C1202.830078,781.062256 1191.150269,780.134644 1179.482300,779.227600 
	C1172.493286,778.684387 1165.529175,777.591919 1158.022827,777.959778 
	C1157.878418,717.668274 1158.514771,657.829529 1156.530518,597.500000 
	C1164.158325,597.500000 1170.829590,597.458252 1177.499756,597.521301 
	C1180.047729,597.545410 1182.067139,597.243164 1184.077026,595.071350 
	C1197.930420,580.102295 1212.024780,565.356689 1225.992310,550.492798 
	C1237.862549,537.860840 1249.666626,525.166687 1261.500000,512.500061 
	C1285.166626,487.166656 1308.810425,461.811829 1332.508057,436.507629 
	C1348.465820,419.468048 1364.524170,402.522736 1380.492676,385.493195 
	C1394.527466,370.525848 1409.001221,355.925629 1422.267334,340.302460 
	C1428.035400,333.509613 1434.192017,334.864227 1440.467896,336.155914 
	C1454.714355,339.088104 1469.009766,341.766113 1483.048096,345.833893 
	C1500.286133,350.828796 1517.088013,356.777100 1533.519531,363.955231 
	C1554.968994,373.325500 1575.260132,384.680237 1594.518311,397.973419 
	C1617.911621,414.120819 1639.286255,432.472046 1658.598022,453.409607 
	C1679.584961,476.163239 1697.557739,500.956879 1712.489014,528.006042 
	C1726.931030,554.168823 1738.135742,581.662415 1745.989258,610.502930 
	C1749.929688,624.973022 1753.121582,639.591431 1755.063110,654.491760 
	C1756.234253,663.479309 1757.225220,672.474854 1758.223145,681.475281 
	C1759.097290,689.358704 1758.380981,697.188293 1759.041504,704.996460 
	C1761.154907,729.980774 1759.735718,755.001709 1759.869263,780.000671 
	C1759.940430,793.330078 1758.846924,806.678955 1757.942627,819.996094 
	C1757.228271,830.515503 1756.407593,841.058777 1754.904053,851.486206 
	C1752.667480,866.998413 1750.634888,882.541687 1748.239746,898.037048 
	C1745.388062,916.485718 1741.752075,934.770386 1737.789429,952.954102 
	C1733.645630,971.969971 1728.624634,990.823242 1723.064575,1009.519226 
	C1713.583862,1041.398438 1702.743896,1072.779785 1689.996460,1103.498535 
	C1671.138550,1148.941528 1648.882080,1192.609985 1623.135254,1234.582886 
	C1606.660278,1261.440430 1588.886597,1287.355103 1569.896362,1312.421509 
	C1554.109497,1333.259644 1537.139038,1353.153931 1519.601196,1372.591309 
	C1497.763184,1396.794434 1474.800049,1419.829346 1450.437134,1441.429077 
	C1424.941040,1464.033325 1398.450928,1485.419189 1370.561157,1505.086792 
	C1346.380371,1522.139038 1321.558228,1538.124268 1296.001587,1553.002686 
	C1265.930542,1570.509155 1234.893066,1586.105103 1202.992676,1599.983154 
	C1190.985107,1605.206909 1179.020020,1610.556152 1166.500000,1614.500000 
"/>
<path fill="none" opacity="1.000000" stroke="#000000" stroke-linecap="round" stroke-linejoin="round" stroke-width="4.000000"
	d="
M1134.500000,538.500000 
	C1139.000000,526.333374 1143.568848,514.191589 1147.986206,501.995026 
	C1158.362671,473.343933 1168.666626,444.666687 1179.000000,415.999969 
	C1189.333374,387.333313 1199.666626,358.666656 1210.000000,330.000000 
	C1220.333374,301.333344 1230.672607,272.668793 1240.997070,243.998962 
	C1245.319824,231.995163 1249.611084,219.980026 1254.085205,207.500000 
	C1171.333374,207.500000 1088.666626,207.500000 1005.666260,207.500000 
	C1011.581726,223.198349 1017.208557,238.380798 1023.016602,253.493622 
	C1035.963013,287.180878 1048.971313,320.844421 1062.008911,354.496552 
	C1072.798706,382.346771 1083.879150,410.086273 1094.444580,438.020935 
	C1106.873413,470.881989 1120.306030,503.359497 1132.100220,536.464294 
	C1132.315063,537.067139 1132.651978,538.514709 1134.000000,538.500000 
"/>
<path fill="none" opacity="1.000000" stroke="#000000" stroke-linecap="round" stroke-linejoin="round" stroke-width="4.000000"
	d="
M1119.500000,536.500000 
	C1120.901245,533.180115 1118.475220,530.711609 1117.448730,528.019592 
	C1105.361938,496.322479 1093.181030,464.661102 1080.994751,433.002014 
	C1073.356323,413.157806 1065.661255,393.335419 1058.001343,373.499481 
	C1046.996338,345.001404 1036.053223,316.479309 1024.984131,288.006195 
	C1015.059448,262.476898 1004.806091,237.072525 995.213196,211.420288 
	C993.805908,207.657242 992.431641,206.943710 988.999939,206.947739 
	C927.666687,207.019699 866.333252,207.025330 805.000183,206.909073 
	C802.498840,206.904327 800.000000,208.433990 797.500000,207.000000 
"/>
<path fill="none" opacity="1.000000" stroke="#000000" stroke-linecap="round" stroke-linejoin="round" stroke-width="4.000000"
	d="
M1147.500000,537.500000 
	C1157.833374,526.833313 1168.282104,516.275635 1178.470703,505.472321 
	C1191.093262,492.087982 1203.452881,478.455963 1216.010010,465.009369 
	C1240.475830,438.810730 1264.977783,412.645813 1289.507690,386.507263 
	C1305.966919,368.968903 1322.533203,351.531158 1338.991333,333.991852 
	C1358.195068,313.526703 1377.289062,292.958252 1396.512939,272.512177 
	C1414.118286,253.787827 1431.836304,235.169388 1449.496826,216.497025 
	C1452.093140,213.751984 1454.647217,210.967041 1457.293579,208.122421 
	C1455.783203,206.392166 1454.024902,207.028656 1452.500000,207.027832 
	C1391.833374,206.995132 1331.166626,207.005142 1270.500000,206.984085 
	C1267.606079,206.983078 1266.096802,207.268005 1264.791626,210.925659 
	C1250.121094,252.043198 1234.960938,292.985748 1220.011475,334.004181 
	C1206.290771,371.651154 1192.623779,409.317871 1179.013916,447.005035 
	C1168.610718,475.813110 1158.425171,504.700592 1147.815308,533.431763 
	C1147.017944,535.590820 1148.293579,538.587280 1145.500000,540.000000 
"/>
<path fill="none" opacity="1.000000" stroke="#000000" stroke-linecap="round" stroke-linejoin="round" stroke-width="4.000000"
	d="
M799.500000,208.000000 
	C811.492493,220.833939 823.664795,233.491043 835.959045,246.040146 
	C873.405334,284.262817 910.780273,322.556854 947.958496,361.040070 
	C971.216614,385.114594 994.536316,409.125519 1017.959229,433.039948 
	C1050.288330,466.047455 1082.365723,499.302124 1114.442749,532.555237 
	C1117.214722,535.428894 1121.477661,537.038391 1122.500000,541.500000 
"/>
<path fill="none" opacity="1.000000" stroke="#000000" stroke-linecap="round" stroke-linejoin="round" stroke-width="4.000000"
	d="
M919.500000,69.500015 
	C930.500000,88.500015 941.512695,107.492683 952.496582,126.501984 
	C965.011108,148.160233 977.506958,169.829315 989.981689,191.510544 
	C990.686768,192.736145 991.126892,194.114243 991.831909,195.750000 
	C927.500000,195.750000 863.500000,195.750000 799.335876,195.750000 
	C799.993469,192.636490 802.148132,190.926285 803.998169,188.998245 
	C835.500671,156.167328 867.080444,123.409836 898.436035,90.439140 
	C905.183350,83.344208 911.561279,75.909012 919.000000,69.500000 
"/>
<path fill="none" opacity="1.000000" stroke="#000000" stroke-linecap="round" stroke-linejoin="round" stroke-width="4.000000"
	d="
M1140.500000,65.000000 
	C1143.755981,71.382957 1149.523193,75.685173 1154.142822,80.872841 
	C1172.966553,102.011429 1192.362305,122.640091 1211.490601,143.508575 
	C1226.474976,159.856171 1241.376099,176.280228 1256.543823,192.922501 
	C1280.425171,149.976746 1304.137207,107.335251 1328.079224,64.280167 
	C1325.673340,64.169289 1323.836670,64.011078 1322.000000,64.010674 
	C1263.333374,63.997700 1204.666626,64.026474 1146.000122,63.908966 
	C1143.498779,63.903957 1141.000000,65.433990 1138.500000,64.000000 
"/>
<path fill="none" opacity="1.000000" stroke="#000000" stroke-linecap="round" stroke-linejoin="round" stroke-width="4.000000"
	d="
M1336.500000,72.500000 
	C1327.419312,86.742012 1319.824585,101.829300 1311.544189,116.524879 
	C1296.859131,142.587570 1282.445068,168.802872 1267.614380,195.500000 
	C1331.164429,195.500000 1394.331543,195.500000 1457.585205,195.500000 
	C1457.379028,193.507385 1455.628784,192.698975 1454.475708,191.523880 
	C1433.508911,170.157959 1412.167725,149.147568 1391.604004,127.401665 
	C1374.832764,109.666176 1357.103394,92.885567 1340.483521,75.015366 
	C1339.443726,73.897369 1338.166626,73.000023 1337.000000,72.000023 
"/>
<path fill="none" opacity="1.000000" stroke="#000000" stroke-linecap="round" stroke-linejoin="round" stroke-width="4.000000"
	d="
M930.000000,65.000008 
	C954.261292,107.471466 978.522522,149.942917 1002.991272,192.777527 
	C1041.037476,149.846695 1078.473633,107.604126 1115.974243,65.289001 
	C1114.213623,63.705376 1112.561401,64.007416 1111.000000,64.007187 
	C1051.666626,63.998692 992.333313,63.997932 933.000000,64.020950 
	C932.166931,64.021278 931.180908,63.571190 930.500000,64.500000 
"/>
<path fill="none" opacity="1.000000" stroke="#000000" stroke-linecap="round" stroke-linejoin="round" stroke-width="4.000000"
	d="
M1014.500000,196.000000 
	C1016.833313,194.638321 1019.166138,196.071335 1021.500061,196.068634 
	C1093.833374,195.984741 1166.166626,196.000000 1238.500000,196.000000 
	C1240.000732,196.000000 1241.501587,196.000000 1243.002319,196.000000 
	C1243.191162,195.660965 1243.379883,195.321945 1243.568726,194.982910 
	C1205.183838,152.863190 1166.798828,110.743454 1128.073120,68.249763 
	C1119.614624,77.801834 1111.567749,86.910187 1103.497681,95.997902 
	C1088.839111,112.505074 1074.178711,129.010803 1059.496460,145.496857 
	C1045.679443,161.011414 1031.823608,176.491287 1018.028015,192.024872 
	C1017.311035,192.832153 1017.000000,193.999985 1016.500000,194.999985 
"/>
</svg>